<svg id="Layer_2" data-name="Layer 2" xmlns="http://www.w3.org/2000/svg" xmlns:xlink="http://www.w3.org/1999/xlink" viewBox="0 0 89.16 107.59">
  <defs>
    <style>
      .cls-1 {
        fill: url(#linear-gradient);
      }

      .cls-1, .cls-2, .cls-3, .cls-4, .cls-5, .cls-6 {
        stroke-width: 0px;
      }

      .cls-2 {
        fill: #dc0e7b;
      }

      .cls-3 {
        fill: url(#linear-gradient-5);
      }

      .cls-4 {
        fill: url(#linear-gradient-2);
      }

      .cls-5 {
        fill: url(#linear-gradient-3);
      }

      .cls-6 {
        fill: url(#linear-gradient-4);
      }
    </style>
    <linearGradient id="linear-gradient" x1="3.02" y1="80.1" x2="18.17" y2="88.84" gradientUnits="userSpaceOnUse">
      <stop offset="0" stop-color="#f04c93"/>
      <stop offset="1" stop-color="#da0778"/>
    </linearGradient>
    <linearGradient id="linear-gradient-2" x1="31.55" y1="30.3" x2="74.97" y2="55.37" xlink:href="#linear-gradient"/>
    <linearGradient id="linear-gradient-3" x1="44.14" y1="28.05" x2="86.9" y2="52.74" xlink:href="#linear-gradient"/>
    <linearGradient id="linear-gradient-4" x1="22.59" y1="22.01" x2="53.11" y2="39.63" xlink:href="#linear-gradient"/>
    <linearGradient id="linear-gradient-5" x1="60.36" y1="16.55" x2="94.88" y2="36.48" xlink:href="#linear-gradient"/>
  </defs>
  <g id="Layer_1-2" data-name="Layer 1">
    <g>
      <g>
        <path class="cls-1" d="M0,92.72c.37-.15,1.51-6.65,2.31-7.81,1.57-2.25,3.98-3.9,6.57-4.72.83-.27,15.8-3.7,13.85-5.89-.21-.24-4.84,2.32-5.33,2.46-2.31.67-4.68.45-7.01.82-1.45.23-2.76.49-4.07,1.2-.66.36-3.78,2.47-3.81,2.55,1.79-5.28,8.68-8.16,13.7-8.44,2.77-.16,8.77.12,8.8,3.32.03,2.94-4.91,5.38-7.05,6.05-2.41.75-4.97.98-7.38,1.79-5.89,1.99-10.02,6.5-8.98,12.97h-.32c-.04-.34-1.19-4.03-1.27-4.05v-.25Z"/>
        <path class="cls-4" d="M42.51,20.04c0-5.78,2.2-15.9,7.29-19.23,1.82-1.19,6.1-1.32,6.69,1.34.33,1.52-2.44,5.7-2.97,7.46-3.89,12.78,3.3,21.78,9.65,32.17,6.7,10.97,7.5,23.32-.18,34.06-1.99,2.79-4.57,4.95-7.61,6.55-2.72,1.43-8.5,3.99-4.15-.72,4.76-5.16,7.7-11.33,7.77-18.43.16-16.14-16.47-27.17-16.47-43.2h0Z"/>
        <path class="cls-5" d="M65.19,5.61c.24,2.69-.91,5.23-.4,8.02.7,3.77,2.76,6.92,4.88,10.02,4.19,6.1,9.39,12.12,11.76,19.22,2.43,7.28,1.63,15.95-1.98,22.75-.42.79-10.49,14.91-12.53,12.35-.5-.63,4.61-7.07,5.1-8.03,1.59-3.08,2.66-6.59,2.89-10.07.59-8.66-2.96-16.4-7.74-23.44-4.75-6.99-11.08-13.95-11.24-22.9-.05-2.89.8-6.62,1.96-9.28,1.52-3.47,7.27-3.15,7.28,1.35Z"/>
        <path class="cls-6" d="M21.22,34.02c0-10.85,5.03-21.06,13.14-28.2,1.88-1.66,4.37-3.92,6.77-4.81,2.62-.97,2.2.03,2.14,2.56-.12,4.61-2.12,8.69-3.86,12.9-3.9,9.43-10.76,18.77-9.95,29.48.31,4.09,1.66,8.15,4.13,11.47.87,1.16,5.5,4.41,5.72,5.74.26,1.55-2.56-.07-3.54-.55-10.89-5.35-14.54-17.24-14.54-28.59h0Z"/>
        <path class="cls-3" d="M66.84,6.89c-.16-.68-.09-1.32.2-1.92.79-.49,5.8,2.99,6.45,3.46,2.71,1.98,5.39,4.6,7.46,7.25,3.08,3.93,5.28,8.39,6.67,13.18.87,3.01,1.48,6.01,1.54,9.13.02,1.18-.03,10.21-1.33,10.38.6-.08-2.79-11.79-3.2-12.64-1.58-3.27-3.71-6.11-6.11-8.8-5.61-6.28-11.59-10.95-11.69-20.05Z"/>
      </g>
      <g>
        <path class="cls-2" d="M35.59,94.23l-3.45,13.23h-3.9l-2.11-8.71-2.19,8.71h-3.9l-3.35-13.23h3.45l1.9,9.63,2.36-9.63h3.54l2.26,9.63,1.92-9.63h3.47Z"/>
        <path class="cls-2" d="M41.46,106.73c-1.04-.58-1.86-1.39-2.47-2.42-.61-1.04-.91-2.2-.91-3.5s.3-2.46.91-3.49,1.43-1.83,2.47-2.41c1.04-.58,2.18-.87,3.42-.87s2.38.29,3.42.87c1.04.58,1.85,1.38,2.45,2.41s.9,2.19.9,3.49-.3,2.46-.9,3.5c-.6,1.04-1.42,1.84-2.45,2.42-1.03.58-2.17.87-3.41.87s-2.38-.29-3.42-.87ZM47.42,103.6c.63-.7.95-1.63.95-2.79s-.32-2.1-.95-2.8c-.63-.7-1.48-1.05-2.53-1.05s-1.92.35-2.55,1.04c-.63.69-.95,1.63-.95,2.81s.32,2.1.95,2.8c.63.7,1.49,1.05,2.55,1.05s1.9-.35,2.53-1.06Z"/>
        <path class="cls-2" d="M61.6,107.46l-2.75-4.99h-.77v4.99h-3.22v-13.23h5.41c1.04,0,1.93.18,2.67.55s1.28.86,1.65,1.5c.36.63.55,1.34.55,2.12,0,.88-.25,1.67-.74,2.36-.5.69-1.23,1.18-2.2,1.47l3.05,5.24h-3.64ZM58.07,100.19h2c.59,0,1.03-.14,1.33-.43.29-.29.44-.7.44-1.22s-.15-.9-.44-1.19c-.3-.29-.74-.43-1.33-.43h-2v3.28Z"/>
        <path class="cls-2" d="M71.77,94.23v13.23h-3.22v-13.23h3.22Z"/>
      </g>
    </g>
  </g>
</svg>